<svg xmlns="http://www.w3.org/2000/svg" version="1.1" viewBox="-5.0 -10.0 110.0 135.0">
 <path d="m90.488 75.094-6.6445-24.766c-1.9688-7.3984-9.6133-13.406-17.039-13.406l-33.609-0.003906c-7.418 0-15.062 6.0117-17.039 13.406l-6.6445 24.77c-1.3281 4.918 1.5195 8.5508 4.918 9.9609 1.0508 0.4375 2.2461 0.68359 3.4609 0.68359 2.6523 0 5.4375-1.1836 7.1953-4.1719l6.918-10.234c1.0508 1.3555 2.6836 2.2461 4.5391 2.2461 2.6016 0 4.7969-1.7344 5.4883-4.1016h15.938c0.69531 2.3672 2.8867 4.1016 5.4883 4.1016 1.8477 0 3.4883-0.87891 4.5391-2.2461l6.9297 10.234c2.5391 4.3672 7.2852 4.8789 10.621 3.5 3.4219-1.4141 6.2695-5.0469 4.9414-9.9727zm-32.324-34.973c-0.011718 0.011718-0.019531 0.019531-0.03125 0.019531-1.1328 0.98047-1.8164 1.5625-3.2852 1.5625h-9.7031c-1.4492 0-2.1328-0.59375-3.2656-1.5625-0.011718-0.011719-0.019531-0.019531-0.03125-0.03125l16.316 0.003906zm-21.625 30.258c-1.3867 0-2.5312-1.1211-2.5312-2.5117 0-1.3867 1.1328-2.5312 2.5312-2.5312 1.3867 0 2.5312 1.1328 2.5312 2.5312-0.007812 1.3789-1.1406 2.5117-2.5312 2.5117zm26.922 0c-1.3867 0-2.5312-1.1211-2.5312-2.5117 0-1.3867 1.1328-2.5312 2.5312-2.5312 1.3984 0 2.5312 1.1328 2.5312 2.5312-0.003907 1.3789-1.1367 2.5117-2.5312 2.5117zm20.875 11.723c-2.1719 0.89844-5.082 0.57031-6.6641-2.1836-0.019531-0.03125-0.039063-0.070313-0.0625-0.10156l-8.4609-12.48c-0.26563-2.9062-2.7148-5.1953-5.6953-5.1953-2.6016 0-4.7969 1.7461-5.4883 4.1211l-15.934 0.003906c-0.69531-2.3789-2.8867-4.1211-5.4883-4.1211-2.9805 0-5.4297 2.2852-5.6953 5.1953l-8.4375 12.48c-0.019531 0.03125-0.039062 0.0625-0.0625 0.09375-1.5938 2.7656-4.5117 3.0938-6.6953 2.1836-1.9609-0.81641-3.9375-2.918-3.0625-6.1719l6.6445-24.766c1.5938-5.9805 7.9883-11.031 13.949-11.031 3.7461 0 5.1328 1.1953 6.6016 2.4492 1.2773 1.0938 2.7148 2.3359 5.3555 2.3359h9.7031c2.6523 0 4.0938-1.2461 5.3672-2.3359 1.4609-1.2539 2.8477-2.4492 6.5938-2.4492 5.9688 0 12.355 5.0508 13.949 11.039l6.6445 24.766c0.87891 3.25-1.1016 5.3633-3.0625 6.168z"/>
 <path d="m38 50.133h-3.2031v-3.2031c0-0.88672-0.71484-1.6016-1.6016-1.6016-0.88672 0-1.6016 0.71484-1.6016 1.6016v3.2031h-3.2031c-0.88672 0-1.6016 0.71484-1.6016 1.6016s0.71484 1.6016 1.6016 1.6016h3.2031v3.1836c0 0.88672 0.71484 1.6016 1.6016 1.6016 0.88672 0 1.6016-0.71484 1.6016-1.6016v-3.1836h3.2031c0.88672 0 1.6016-0.71484 1.6016-1.6016s-0.72266-1.6016-1.6016-1.6016z"/>
 <path d="m62.887 50.398c-0.082031-0.050782-0.18359-0.10156-0.27734-0.14453-0.10156-0.039062-0.20312-0.070312-0.29688-0.082031-0.20312-0.050781-0.41797-0.050781-0.62109 0-0.10156 0.019531-0.20312 0.050781-0.29688 0.082031-0.09375 0.039063-0.18359 0.09375-0.27734 0.14453-0.082032 0.0625-0.16406 0.12109-0.24609 0.20312-0.29688 0.29688-0.46875 0.70313-0.46875 1.1328 0 0.10156 0.011718 0.20312 0.03125 0.30469 0.019531 0.10156 0.050781 0.20313 0.09375 0.29688 0.039062 0.10156 0.082031 0.18359 0.14453 0.27734s0.12109 0.17188 0.20312 0.24609c0.29688 0.29688 0.70312 0.46875 1.1328 0.46875 0.42969 0 0.83594-0.16406 1.1328-0.46875 0.070313-0.070313 0.14453-0.15234 0.20312-0.24609 0.0625-0.082031 0.10156-0.17188 0.14453-0.27734 0.039063-0.09375 0.070313-0.19531 0.09375-0.29688 0.019531-0.10156 0.03125-0.20312 0.03125-0.30469 0-0.42969-0.17188-0.83594-0.46875-1.1328-0.082031-0.082031-0.16406-0.14062-0.25781-0.20312z"/>
 <path d="m67.695 45.594c-0.082031-0.050781-0.18359-0.10156-0.27734-0.14453-0.10156-0.039063-0.20312-0.070313-0.29688-0.082031-0.51953-0.10156-1.0703 0.0625-1.4375 0.4375-0.29688 0.29687-0.46875 0.70312-0.46875 1.1328 0 0.41797 0.17188 0.83594 0.46875 1.1328 0.29688 0.29688 0.70312 0.46875 1.1328 0.46875 0.10156 0 0.20312-0.011718 0.31641-0.03125 0.10156-0.019531 0.20313-0.050781 0.29688-0.082031 0.09375-0.039062 0.18359-0.09375 0.27734-0.14453 0.082031-0.0625 0.16406-0.12109 0.24609-0.20312 0.070313-0.070313 0.14453-0.15234 0.20312-0.24609 0.0625-0.082031 0.10156-0.18359 0.14453-0.27734 0.039063-0.09375 0.070313-0.20313 0.09375-0.29688 0.019531-0.10156 0.03125-0.20312 0.03125-0.31641 0-0.41797-0.17188-0.82812-0.46875-1.1328-0.089843-0.09375-0.17188-0.15625-0.26172-0.21484z"/>
 <path d="m73.094 51.121c-0.039062-0.10156-0.082031-0.18359-0.14453-0.27734s-0.12109-0.17188-0.20312-0.24609c-0.070313-0.070312-0.15234-0.14453-0.24609-0.20312-0.082031-0.050781-0.18359-0.10156-0.27734-0.14453-0.10156-0.039062-0.20312-0.070312-0.29688-0.082031-0.20312-0.050781-0.41797-0.050781-0.63281 0-0.10156 0.019531-0.20312 0.050781-0.29688 0.082031-0.09375 0.039062-0.18359 0.09375-0.27734 0.14453-0.082031 0.0625-0.16406 0.12109-0.24609 0.20312-0.29688 0.29688-0.46875 0.71484-0.46875 1.1328s0.17188 0.83594 0.46875 1.1328c0.070313 0.070313 0.15234 0.14453 0.24609 0.20312 0.082031 0.050782 0.18359 0.10156 0.27734 0.14453 0.10156 0.039062 0.20312 0.070312 0.29688 0.082031 0.10156 0.019531 0.21484 0.03125 0.31641 0.03125s0.21484-0.011719 0.31641-0.03125c0.10156-0.019531 0.20312-0.050781 0.29688-0.082031 0.09375-0.039063 0.18359-0.09375 0.27734-0.14453 0.082031-0.0625 0.16406-0.12109 0.24609-0.20312 0.29688-0.29688 0.46875-0.70312 0.46875-1.1328 0-0.10156-0.011719-0.20312-0.03125-0.30469-0.019532-0.10938-0.050782-0.21094-0.089844-0.30469z"/>
 <path d="m67.695 55.184c-0.082031-0.050782-0.18359-0.10156-0.27734-0.14453-0.10156-0.039062-0.20312-0.070312-0.29688-0.082031-0.51953-0.10156-1.0703 0.070313-1.4375 0.4375-0.29688 0.29688-0.46875 0.71484-0.46875 1.1328 0 0.41797 0.17188 0.82812 0.46875 1.1328 0.29688 0.29688 0.70312 0.46875 1.1328 0.46875 0.10156 0 0.20312-0.011718 0.31641-0.03125 0.10156-0.019531 0.20313-0.050781 0.29688-0.082031 0.09375-0.039063 0.18359-0.09375 0.27734-0.14453 0.082031-0.0625 0.16406-0.12109 0.24609-0.20312 0.070313-0.070313 0.14453-0.15234 0.20312-0.24609 0.0625-0.09375 0.10156-0.18359 0.14453-0.27734 0.039063-0.09375 0.070313-0.19531 0.09375-0.29688 0.019531-0.10156 0.03125-0.20312 0.03125-0.30469 0-0.41797-0.17188-0.83594-0.46875-1.1328-0.089843-0.10547-0.17188-0.16406-0.26172-0.22656z"/>
 <path d="m49.988 30.195c-0.88672 0-1.5938 0.71484-1.5938 1.6016s0.72266 1.6016 1.6133 1.6016c0.88672 0 1.6016-0.71484 1.6016-1.6016s-0.71484-1.6016-1.6016-1.6016z"/>
 <path d="m39.887 21.664c2.7148-2.7148 6.3047-4.2031 10.121-4.2031 3.8047 0 7.3984 1.4883 10.113 4.2031 0.31641 0.31641 0.72266 0.46875 1.1328 0.46875 0.40625 0 0.81641-0.15234 1.1328-0.46875 0.62109-0.62109 0.62109-1.6328 0-2.2656-3.3164-3.3164-7.7031-5.1445-12.367-5.1445-4.6719 0-9.0703 1.8281-12.387 5.1445-0.62109 0.62109-0.62109 1.6328 0 2.2656 0.61328 0.62109 1.6211 0.62109 2.2539 0z"/>
 <path d="m55.418 27.961c0.40625 0 0.81641-0.15234 1.1211-0.46094 0.63281-0.62109 0.63281-1.6328 0.011719-2.2656-1.7344-1.7539-4.0625-2.7227-6.5508-2.7227-2.5 0-4.8359 0.96875-6.5703 2.7227-0.62109 0.63281-0.61328 1.6445 0.011718 2.2656 0.63281 0.62109 1.6445 0.61328 2.2656-0.019531 1.1328-1.1445 2.6523-1.7773 4.2969-1.7773 1.6211 0 3.1445 0.63281 4.2773 1.7773 0.3125 0.31641 0.73047 0.48047 1.1367 0.48047z"/>
 <path d="m47.621 62.734c-0.039063-0.09375-0.09375-0.18359-0.14453-0.27734-0.0625-0.082031-0.12109-0.16406-0.20312-0.24609-0.37891-0.37891-0.91797-0.55078-1.4375-0.4375-0.10156 0.019531-0.20313 0.050781-0.29688 0.09375-0.10156 0.039062-0.18359 0.082031-0.27734 0.14453-0.09375 0.050781-0.17188 0.12109-0.24609 0.20312-0.29688 0.29688-0.46875 0.70312-0.46875 1.1328 0 0.41797 0.17188 0.83594 0.46875 1.1328s0.71484 0.46875 1.1328 0.46875c0.41797 0 0.82812-0.16406 1.1328-0.46875 0.29688-0.29688 0.46875-0.70312 0.46875-1.1328 0-0.10156-0.011719-0.20312-0.03125-0.31641-0.023438-0.10156-0.054688-0.19531-0.097656-0.29688z"/>
 <path d="m55.328 62.734c-0.039063-0.09375-0.082031-0.18359-0.14453-0.27734-0.050782-0.082031-0.12109-0.16406-0.19531-0.24609-0.070312-0.070313-0.16406-0.14453-0.24609-0.19531-0.082032-0.0625-0.18359-0.10156-0.27734-0.14453-0.10156-0.039063-0.20312-0.070313-0.29688-0.09375-0.51953-0.10156-1.0703 0.070312-1.4375 0.4375-0.070313 0.082031-0.14453 0.16406-0.20312 0.24609-0.050782 0.082031-0.10156 0.18359-0.14453 0.27734-0.039062 0.10156-0.070312 0.20312-0.09375 0.29688-0.019531 0.10156-0.03125 0.20312-0.03125 0.31641 0 0.41797 0.16406 0.83594 0.46875 1.1328 0.29688 0.29688 0.70313 0.46875 1.1328 0.46875 0.10156 0 0.21484-0.011719 0.31641-0.03125 0.10156-0.019531 0.20312-0.050781 0.29688-0.09375 0.09375-0.039063 0.18359-0.082031 0.27734-0.14453 0.082031-0.0625 0.17188-0.12109 0.24609-0.20312 0.070312-0.070313 0.14453-0.15234 0.19531-0.24609 0.0625-0.09375 0.10156-0.18359 0.14453-0.27734 0.039062-0.10156 0.070312-0.20312 0.09375-0.29688 0.019531-0.10156 0.03125-0.21484 0.03125-0.31641s-0.011719-0.21484-0.03125-0.31641c-0.03125-0.097656-0.0625-0.19141-0.10156-0.29297z"/>
<text x="0.0" y="117.5" font-size="5.0" font-weight="bold" font-family="Arbeit Regular, Helvetica, Arial-Unicode, Arial, Sans-serif" fill="#000000">Created by Rizqi Auliya Lestari</text><text x="0.0" y="122.5" font-size="5.0" font-weight="bold" font-family="Arbeit Regular, Helvetica, Arial-Unicode, Arial, Sans-serif" fill="#000000">from Noun Project</text></svg>